<?xml version="1.0" encoding="utf-8"?><!DOCTYPE svg PUBLIC "-//W3C//DTD SVG 1.1//EN" "http://www.w3.org/Graphics/SVG/1.1/DTD/svg11.dtd"><svg version="1.1" baseProfile="full" xmlns="http://www.w3.org/2000/svg" xmlns:xlink="http://www.w3.org/1999/xlink" xmlns:ev="http://www.w3.org/2001/xml-events"   height="557px"   width="556px" ><defs><linearGradient id="PSgrad_0" x1="100%" x2="0%" y1="0%" y2="0%">  <stop offset="0%" stop-color="rgb(209,159,39)" stop-opacity="1" />  <stop offset="17%" stop-color="rgb(225,173,47)" stop-opacity="1" />  <stop offset="50%" stop-color="rgb(241,186,55)" stop-opacity="1" />  <stop offset="82%" stop-color="rgb(225,173,47)" stop-opacity="1" />  <stop offset="100%" stop-color="rgb(209,159,39)" stop-opacity="1" /></linearGradient><linearGradient id="PSgrad_1" x1="100%" x2="0%" y1="0%" y2="0%">  <stop offset="0%" stop-color="rgb(205,186,95)" stop-opacity="1" />  <stop offset="17%" stop-color="rgb(222,200,96)" stop-opacity="1" />  <stop offset="50%" stop-color="rgb(239,214,97)" stop-opacity="1" />  <stop offset="82%" stop-color="rgb(222,200,96)" stop-opacity="1" />  <stop offset="100%" stop-color="rgb(205,186,95)" stop-opacity="1" /></linearGradient></defs><path fill="rgb( 88, 74, 74 )" d="M494.915,400.335 C475.286,411.184 454.173,415.131 435.534,412.833 C432.625,418.688 429.584,424.398 426.424,429.964 C466.965,443.456 491.752,461.498 491.752,481.324 C491.752,523.115 381.67,556.993 245.876,556.993 C110.083,556.993 0,523.115 0,481.324 C0,461.741 24.171,443.896 63.832,430.46 C32.47,375.434 13.134,305.858 11.572,229.899 C11.572,229.899 11.91,229.899 11.91,229.899 C11.892,229.677 11.864,229.455 11.864,229.232 C11.864,210.581 76.051,194.7 165.863,188.702 C168.51,192.335 173.658,196.449 175.019,197.508 C95.238,202.555 37.886,216.507 37.886,232.932 C37.886,253.612 128.792,270.376 240.931,270.376 C353.07,270.376 443.977,253.612 443.977,232.932 C443.977,216.241 384.755,202.102 302.951,197.268 C304.351,194.11 306.161,190.666 307.803,187.715 C406.314,192.763 478.631,209.436 478.631,229.232 C478.631,229.903 478.536,230.569 478.371,231.233 C478.054,244.845 477.17,258.252 475.745,271.404 C502.221,270.189 526.016,280.621 537.391,301.209 C555.073,333.215 536.056,377.595 494.915,400.335 ZM241.993,515.95 C324.925,515.95 392.646,495.907 396.801,470.702 C233.833,541.787 104.08,476.626 87.021,467.336 C87.002,467.639 86.983,467.941 86.983,468.245 C86.983,494.592 156.384,515.95 241.993,515.95 ZM88.701,461.13 C88.701,461.13 92.826,455.228 92.826,455.228 C91.059,457.149 89.678,459.119 88.701,461.13 ZM439.542,386.774 C439.542,386.774 439.452,386.963 439.452,386.963 C440.47,387.033 441.495,387.083 442.53,387.106 C442.53,387.106 439.542,386.774 439.542,386.774 ZM508.047,317.32 C501.069,306.096 487.414,299.719 471.67,298.827 C470.972,302.59 459.812,362.037 446.721,387.062 C457.058,386.672 467.988,384.033 478.329,378.953 C507.113,364.814 520.418,337.22 508.047,317.32 ZM303.622,182.045 C298.778,189.012 293.16,204.94 293.16,204.94 C293.16,204.94 293.371,204.973 293.371,204.973 C282.474,240.245 305.817,250.213 312.461,252.289 C302.33,249.425 250.21,233.146 250.758,201.618 C250.758,201.618 250.852,201.737 250.852,201.737 C250.821,201.48 250.799,201.224 250.779,200.968 C250.85,199.204 251.075,197.396 251.492,195.537 C251.38,195.536 251.266,195.536 251.154,195.535 C251.872,192.016 253.386,188.764 254.897,186.183 C254.925,186.183 254.954,186.183 254.982,186.184 C255.185,185.791 255.397,185.397 255.616,185.001 C257.016,182.783 258.296,181.216 258.784,180.643 C258.918,180.485 258.992,180.403 258.992,180.403 C258.992,180.403 258.644,180.151 258.644,180.151 C261.89,175.473 266.232,170.559 271.857,165.401 C337.356,105.348 310.065,94.43 293.69,78.052 C293.69,78.052 367.377,88.97 314.159,165.401 C310.024,171.339 306.543,176.875 303.622,182.045 ZM312.461,252.289 C313.551,252.597 314.159,252.751 314.159,252.751 C314.159,252.751 313.523,252.621 312.461,252.289 ZM245.914,195.51 C244.252,195.503 242.603,195.487 240.931,195.487 C234.72,195.487 228.597,195.553 222.531,195.655 C222.15,193.43 221.534,189.406 221.473,186.374 C229.294,186.226 237.217,186.144 245.247,186.144 C246.164,186.144 247.069,186.152 247.983,186.155 C245.373,192.496 245.876,195.463 245.876,195.463 C245.876,195.463 245.914,195.51 245.914,195.51 ZM255.789,117.699 C228.653,143.12 217.885,163.904 216.068,180.543 C216.068,180.543 215.711,180.403 215.711,180.403 C215.711,180.403 215.547,188.525 216.306,193.584 C216.308,193.596 216.31,193.609 216.311,193.622 C216.326,193.721 216.342,193.82 216.357,193.917 C216.615,195.607 216.996,197.104 217.558,198.053 C225.317,224.106 255.789,235.398 255.789,235.398 C255.789,235.398 209.597,221.412 183.874,196.988 C183.788,196.993 183.703,196.998 183.616,197.002 C178.869,192.316 173.93,185.186 173.93,185.186 C173.93,185.186 173.841,185.199 173.841,185.199 C161.785,166.784 163.425,143.93 198.79,117.699 C294.386,46.791 245.602,23.403 228.209,0 C228.209,0 347.85,31.454 255.789,117.699 Z "/><path opacity="0.769" fill="rgb( 42, 185, 198 )" d="M31.995,356.992 C31.995,356.992 40.995,308.992 40.995,308.992 C40.995,308.992 51.995,355.992 51.995,355.992 C51.995,355.992 69.995,376.992 69.995,376.992 C69.995,376.992 93.995,344.992 93.995,344.992 C93.995,344.992 106.995,308.992 106.995,308.992 C106.995,308.992 127.995,372.992 127.995,372.992 C127.995,372.992 166.007,320.98 166.007,320.98 C166.007,320.98 211.995,286.992 211.995,286.992 C211.995,286.992 224.995,380.992 224.995,380.992 C224.995,380.992 241.995,365.992 241.995,365.992 C241.995,365.992 255.995,377.992 255.995,377.992 C255.995,377.992 267.995,343.992 267.995,343.992 C267.995,343.992 299.995,317.992 299.995,317.992 C299.995,317.992 328.995,301.992 328.995,301.992 C328.995,301.992 338.995,342.992 338.995,342.992 C338.995,342.992 388.995,320.992 388.995,320.992 C388.995,320.992 425.995,344.992 425.995,344.992 C425.995,344.992 430.995,370.992 430.995,370.992 C430.995,370.992 437.995,347.992 437.995,347.992 C437.995,347.992 447.995,358.992 447.995,358.992 C447.995,358.992 449.995,372.992 449.995,372.992 C449.995,372.992 430.495,439.492 396.995,469.992 C337.995,500.992 201.495,527.492 87.995,466.992 C55.495,430.492 31.995,356.992 31.995,356.992 Z "/><path fill="url(#PSgrad_0)" d="M31.995,356.992 C31.995,356.992 40.995,308.992 40.995,308.992 C40.995,308.992 51.995,355.992 51.995,355.992 C51.995,355.992 69.995,376.992 69.995,376.992 C69.995,376.992 93.995,344.992 93.995,344.992 C93.995,344.992 106.995,308.992 106.995,308.992 C106.995,308.992 127.995,372.992 127.995,372.992 C127.995,372.992 166.007,320.98 166.007,320.98 C166.007,320.98 211.995,286.992 211.995,286.992 C211.995,286.992 224.995,380.992 224.995,380.992 C224.995,380.992 241.995,365.992 241.995,365.992 C241.995,365.992 255.995,377.992 255.995,377.992 C255.995,377.992 267.995,343.992 267.995,343.992 C267.995,343.992 299.995,317.992 299.995,317.992 C299.995,317.992 328.995,301.992 328.995,301.992 C328.995,301.992 338.995,342.992 338.995,342.992 C338.995,342.992 388.995,320.992 388.995,320.992 C388.995,320.992 425.995,344.992 425.995,344.992 C425.995,344.992 430.995,370.992 430.995,370.992 C430.995,370.992 437.995,347.992 437.995,347.992 C437.995,347.992 447.995,358.992 447.995,358.992 C447.995,358.992 449.995,372.992 449.995,372.992 C449.995,372.992 430.495,439.492 396.995,469.992 C337.995,500.992 201.495,527.492 87.995,466.992 C55.495,430.492 31.995,356.992 31.995,356.992 Z "/><path opacity="0.769" fill="rgb( 253, 217, 0 )" d="M31.995,356.992 C31.995,356.992 110.995,428.992 110.995,428.992 C110.995,428.992 146.995,358.992 146.995,358.992 C146.995,358.992 187.995,362.992 187.995,362.992 C187.995,362.992 211.995,396.992 211.995,396.992 C211.995,396.992 236.995,415.992 236.995,415.992 C236.995,415.992 256.66,406.109 256.66,406.109 C256.66,406.109 279.995,367.992 279.995,367.992 C279.995,367.992 298.995,441.992 298.995,441.992 C298.995,441.992 328.995,452.992 328.995,452.992 C328.995,452.992 338.995,430.992 338.995,430.992 C338.995,430.992 365.995,414.992 365.995,414.992 C365.995,414.992 394.987,432.884 394.987,432.884 C394.987,432.884 449.995,372.992 449.995,372.992 C449.995,372.992 430.495,439.492 396.995,469.992 C337.995,500.992 201.495,527.492 87.995,466.992 C55.495,430.492 31.995,356.992 31.995,356.992 Z "/><path fill="url(#PSgrad_1)" d="M31.995,356.992 C31.995,356.992 110.995,428.992 110.995,428.992 C110.995,428.992 146.995,358.992 146.995,358.992 C146.995,358.992 187.995,362.992 187.995,362.992 C187.995,362.992 211.995,396.992 211.995,396.992 C211.995,396.992 236.995,415.992 236.995,415.992 C236.995,415.992 256.66,406.109 256.66,406.109 C256.66,406.109 279.995,367.992 279.995,367.992 C279.995,367.992 298.995,441.992 298.995,441.992 C298.995,441.992 328.995,452.992 328.995,452.992 C328.995,452.992 338.995,430.992 338.995,430.992 C338.995,430.992 365.995,414.992 365.995,414.992 C365.995,414.992 394.987,432.884 394.987,432.884 C394.987,432.884 449.995,372.992 449.995,372.992 C449.995,372.992 430.495,439.492 396.995,469.992 C337.995,500.992 201.495,527.492 87.995,466.992 C55.495,430.492 31.995,356.992 31.995,356.992 Z "/></svg>